<svg id="eurodent" xmlns="http://www.w3.org/2000/svg" viewBox="0 0 56.18 85"><defs><style>.cls-1{fill:none;stroke:#a69569;stroke-linecap:round;stroke-linejoin:round;}</style></defs><title>Зуб из лого</title><polyline class="cls-1" points="27.91 3.31 6.47 0.5 0.5 9.64"/><line class="cls-1" x1="0.5" y1="9.64" x2="27.91" y2="3.31"/><line class="cls-1" x1="0.5" y1="9.64" x2="6.12" y2="40.57"/><line class="cls-1" x1="0.5" y1="9.64" x2="17.02" y2="26.51"/><polyline class="cls-1" points="55.68 8.94 50.41 0.5 27.91 3.31"/><line class="cls-1" x1="27.91" y1="3.31" x2="55.68" y2="8.94"/><line class="cls-1" x1="50.06" y1="40.65" x2="55.68" y2="8.94"/><line class="cls-1" x1="55.68" y1="8.94" x2="38.81" y2="26.39"/><line class="cls-1" x1="6.12" y1="60.25" x2="6.12" y2="40.57"/><line class="cls-1" x1="19.48" y1="54.25" x2="27.91" y2="50.41"/><line class="cls-1" x1="27.91" y1="50.41" x2="17.02" y2="26.51"/><line class="cls-1" x1="6.12" y1="40.57" x2="17.02" y2="26.51"/><line class="cls-1" x1="27.91" y1="50.41" x2="6.12" y2="40.57"/><line class="cls-1" x1="27.91" y1="3.31" x2="38.81" y2="26.39"/><line class="cls-1" x1="27.91" y1="3.31" x2="17.02" y2="26.51"/><line class="cls-1" x1="38.81" y1="26.39" x2="17.02" y2="26.51"/><line class="cls-1" x1="27.91" y1="50.41" x2="38.81" y2="26.39"/><line class="cls-1" x1="50.06" y1="40.65" x2="38.81" y2="26.39"/><line class="cls-1" x1="50.06" y1="60.25" x2="50.06" y2="40.65"/><line class="cls-1" x1="27.91" y1="50.41" x2="36.35" y2="54.22"/><line class="cls-1" x1="50.06" y1="40.65" x2="27.91" y2="50.41"/><polyline class="cls-1" points="39.16 77.12 44.08 84.5 50.06 60.25"/><line class="cls-1" x1="36.35" y1="54.22" x2="39.16" y2="77.12"/><line class="cls-1" x1="50.06" y1="60.25" x2="36.35" y2="54.22"/><line class="cls-1" x1="50.06" y1="60.25" x2="39.16" y2="77.12"/><line class="cls-1" x1="15.96" y1="77.12" x2="19.48" y2="54.25"/><line class="cls-1" x1="19.48" y1="54.25" x2="6.12" y2="60.25"/><polyline class="cls-1" points="6.12 60.25 12.8 84.5 15.96 77.12"/><line class="cls-1" x1="15.96" y1="77.12" x2="6.12" y2="60.25"/></svg>